<svg width="19" height="18" viewBox="0 0 19 18" fill="none" xmlns="http://www.w3.org/2000/svg">
<path fill-rule="evenodd" clip-rule="evenodd" d="M6.3155 14.9639C6.851 14.9639 7.28675 15.3989 7.28675 15.9344C7.28675 16.4699 6.851 16.9057 6.3155 16.9057C5.78 16.9057 5.345 16.4699 5.345 15.9344C5.345 15.3989 5.78 14.9639 6.3155 14.9639ZM14.7757 14.9639C15.312 14.9639 15.7477 15.3989 15.7477 15.9344C15.7477 16.4699 15.312 16.9057 14.7757 16.9057C14.2402 16.9057 13.8052 16.4699 13.8052 15.9344C13.8052 15.3989 14.2402 14.9639 14.7757 14.9639ZM3.10865 2.25712L4.66865 2.52712C4.9199 2.57137 5.11115 2.77987 5.1329 3.03487L5.30915 5.13562L5.96454 5.1359C6.07149 5.13595 6.1773 5.13599 6.28199 5.13604L7.48522 5.13661C7.58113 5.13666 7.67597 5.13671 7.76975 5.13676L9.09829 5.13749C9.18175 5.13753 9.26422 5.13758 9.34569 5.13763L10.2767 5.13823C10.3504 5.13828 10.4233 5.13833 10.4951 5.13838L11.314 5.13898C11.3787 5.13903 11.4424 5.13908 11.5053 5.13913L12.2193 5.13974C12.2755 5.1398 12.3308 5.13985 12.3853 5.1399L12.8546 5.14037C12.9044 5.14042 12.9534 5.14047 13.0016 5.14052L13.5451 5.14115C13.5874 5.14121 13.6291 5.14126 13.6701 5.14131L14.1289 5.14195C14.1645 5.14201 14.1994 5.14206 14.2337 5.14211L14.5253 5.1426C14.5558 5.14266 14.5858 5.14271 14.6152 5.14276L14.94 5.14342C14.9648 5.14348 14.9891 5.14353 15.0129 5.14359L15.2128 5.14409C15.2335 5.14414 15.2537 5.1442 15.2734 5.14426L15.4877 5.14493C15.5038 5.14499 15.5194 5.14505 15.5346 5.1451L15.6605 5.14562C15.6733 5.14567 15.6857 5.14573 15.6977 5.14579L15.825 5.14648C15.8343 5.14654 15.8432 5.1466 15.8518 5.14666L15.9212 5.14718C15.928 5.14724 15.9346 5.1473 15.9409 5.14736L15.9908 5.14789C15.9957 5.14795 16.0003 5.14801 16.0046 5.14807L16.0386 5.14861C16.0418 5.14867 16.0449 5.14873 16.0477 5.14879L16.0692 5.14933C16.0712 5.14939 16.073 5.14945 16.0747 5.14952L16.0903 5.15025C16.0912 5.15031 16.0921 5.15037 16.0929 5.15043C16.1003 5.15112 16.1013 5.15124 16.1024 5.15137C16.5202 5.21212 16.8877 5.43037 17.1382 5.76637C17.3887 6.10162 17.4937 6.51487 17.4337 6.92887L16.7219 11.8474C16.5877 12.7834 15.7747 13.4891 14.8297 13.4891H6.6389C5.65115 13.4891 4.8149 12.7181 4.73465 11.7319L4.04765 3.56137L2.9174 3.36637C2.61065 3.31237 2.4059 3.02212 2.4584 2.71537C2.5124 2.40862 2.80865 2.20912 3.10865 2.25712ZM5.81408 6.26087L5.40365 6.26062L5.8559 11.6396C5.8889 12.0536 6.22715 12.3641 6.6404 12.3641H14.8282C15.2189 12.3641 15.5527 12.0731 15.6082 11.6869L16.3207 6.76762C16.3372 6.65062 16.3079 6.53362 16.2367 6.43912C16.1662 6.34387 16.0627 6.28237 15.9457 6.26587C15.9402 6.26607 15.9273 6.26626 15.9072 6.26643L15.8256 6.2669C15.8085 6.26697 15.7898 6.26704 15.7693 6.2671L15.3444 6.26774C15.3086 6.26777 15.2713 6.26779 15.2327 6.26781L14.2337 6.26777C14.178 6.26775 14.1212 6.26772 14.0634 6.2677L12.9233 6.26701C12.855 6.26696 12.7859 6.2669 12.7162 6.26685L12.0711 6.26633C11.9976 6.26627 11.9236 6.26621 11.849 6.26615L11.1657 6.26555C11.0885 6.26548 11.011 6.26541 10.9331 6.26534L10.4624 6.2649C10.3835 6.26483 10.3043 6.26476 10.2249 6.26468L9.5066 6.26401C9.42651 6.26394 9.34638 6.26386 9.26624 6.26379L8.78575 6.26334C8.70579 6.26327 8.62592 6.26319 8.54618 6.26312L8.06978 6.26269C7.99077 6.26262 7.912 6.26255 7.83349 6.26248L7.13561 6.26188C7.05917 6.26181 6.98314 6.26175 6.90756 6.26169L6.02562 6.26102C5.95445 6.26097 5.88392 6.26092 5.81408 6.26087ZM13.6236 7.90784C13.9341 7.90784 14.1861 8.15984 14.1861 8.47034C14.1861 8.78084 13.9341 9.03284 13.6236 9.03284H11.5446C11.2333 9.03284 10.9821 8.78084 10.9821 8.47034C10.9821 8.15984 11.2333 7.90784 11.5446 7.90784H13.6236Z" fill="black"/>
</svg>
