<svg width="235" height="231" viewBox="0 0 235 231" fill="none" xmlns="http://www.w3.org/2000/svg">
<g filter="url(#filter0_d_4_2174)">
<rect x="50.4282" y="49.0353" width="133.821" height="130.36" rx="5" fill="white"/>
<g clip-path="url(#clip0_4_2174)">
<path d="M121.013 78.2879C126.736 70.754 134.691 70.7173 134.691 70.7173C134.691 70.7173 135.874 77.8004 130.189 84.6238C124.12 91.9096 117.22 90.7174 117.22 90.7174C117.22 90.7174 115.925 84.9874 121.013 78.2879ZM117.948 95.6791C120.892 95.6791 126.355 91.6369 133.467 91.6369C145.709 91.6369 150.524 100.338 150.524 100.338C150.524 100.338 141.106 105.148 141.106 116.821C141.106 129.988 152.839 134.526 152.839 134.526C152.839 134.526 144.637 157.586 133.558 157.586C128.47 157.586 124.514 154.161 119.153 154.161C113.689 154.161 108.267 157.714 104.736 157.714C94.6195 157.714 81.8389 135.839 81.8389 118.255C81.8389 100.955 92.6568 91.8793 102.804 91.8793C109.4 91.8793 114.519 95.6791 117.948 95.6791Z" fill="#999999"/>
</g>
</g>
<defs>
<filter id="filter0_d_4_2174" x="0.428223" y="0.0352783" width="233.821" height="230.36" filterUnits="userSpaceOnUse" color-interpolation-filters="sRGB">
<feFlood flood-opacity="0" result="BackgroundImageFix"/>
<feColorMatrix in="SourceAlpha" type="matrix" values="0 0 0 0 0 0 0 0 0 0 0 0 0 0 0 0 0 0 127 0" result="hardAlpha"/>
<feOffset dy="1"/>
<feGaussianBlur stdDeviation="25"/>
<feComposite in2="hardAlpha" operator="out"/>
<feColorMatrix type="matrix" values="0 0 0 0 0 0 0 0 0 0 0 0 0 0 0 0 0 0 0.1 0"/>
<feBlend mode="normal" in2="BackgroundImageFix" result="effect1_dropShadow_4_2174"/>
<feBlend mode="normal" in="SourceGraphic" in2="effect1_dropShadow_4_2174" result="shape"/>
</filter>
<clipPath id="clip0_4_2174">
<rect width="71" height="87" fill="white" transform="translate(81.8389 70.7156)"/>
</clipPath>
</defs>
</svg>
