<svg width="234" height="231" viewBox="0 0 234 231" fill="none" xmlns="http://www.w3.org/2000/svg">
<g filter="url(#filter0_d_5_6441)">
<rect x="50.0713" y="49.2228" width="133.821" height="130.36" rx="5" fill="white"/>
<g clip-path="url(#clip0_5_6441)">
<path fill-rule="evenodd" clip-rule="evenodd" d="M67.4924 64.9031H166.492V163.903H67.4924V64.9031Z" fill="white"/>
<path fill-rule="evenodd" clip-rule="evenodd" d="M157.543 155.344L154.269 155.347L149.427 162.427H151.71L152.48 161.287H156.029L156.25 162.414L158.955 162.427L157.543 155.344ZM153.472 159.856L155.287 157.159L155.781 159.856H153.472ZM146.106 155.33L143.15 155.332L141.288 162.413H148.302L148.743 160.76H144.685L146.106 155.33ZM81.4357 159.085L80.5276 155.362H76.9853L74.9705 162.442H77.2539L78.5195 157.899L79.5919 162.442H81.1054L84.8701 157.899L83.582 162.442H86.0304L88.0396 155.362H84.5173L81.4357 159.085ZM95.7806 155.403C92.8787 154.904 89.8613 155.915 88.7484 157.98C87.5198 160.214 89.4766 161.837 91.8608 162.333C94.6204 162.809 97.7811 161.916 98.9968 159.68C99.9469 157.946 99.1103 155.976 95.7806 155.403ZM96.1899 159.153C95.5983 160.239 94.0564 160.954 92.7349 160.727C91.2707 160.475 91.3333 159.362 91.7879 158.522C92.2398 157.692 93.494 156.767 94.8803 157.005C96.2485 157.211 96.6732 158.259 96.1899 159.153ZM126.527 155.364H121.629L119.773 162.444H122.166L122.813 159.976H124.463C125.811 159.98 125.969 160.406 125.798 161.086C125.639 161.717 125.826 162.36 125.983 162.444H128.921L128.98 162.228C128.728 162.222 128.838 161.699 128.893 161.383L129.003 160.818C129.127 159.745 128.59 159.512 128.137 159.429C127.985 159.416 127.93 159.127 128.137 159.072C129.141 158.851 129.772 158.196 129.991 157.379C130.348 156.003 129.533 155.364 126.527 155.364ZM127.284 157.754C127.151 158.245 126.589 158.48 125.674 158.48H123.199L123.604 156.926H126.307C126.996 156.926 127.416 157.252 127.284 157.754ZM100.494 155.309L99.9711 157.334L102.929 157.336L101.612 162.392H104.277L105.598 157.336L108.583 157.332L109.106 155.308L100.494 155.309ZM116.132 155.403C113.23 154.904 110.213 155.915 109.1 157.98C107.871 160.214 109.828 161.837 112.212 162.333C114.972 162.809 118.133 161.916 119.348 159.68C120.299 157.946 119.462 155.976 116.132 155.403ZM116.541 159.153C115.95 160.239 114.408 160.954 113.086 160.727C111.622 160.475 111.685 159.362 112.139 158.522C112.591 157.692 113.846 156.767 115.232 157.005C116.6 157.211 117.025 158.259 116.541 159.153ZM137.811 155.403C134.909 154.904 131.891 155.915 130.779 157.98C129.55 160.214 131.507 161.837 133.891 162.333C136.651 162.809 139.811 161.916 141.027 159.68C141.978 157.946 141.14 155.976 137.811 155.403ZM138.22 159.153C137.628 160.239 136.087 160.954 134.765 160.727C133.3 160.475 133.363 159.362 133.818 158.522C134.269 157.692 135.523 156.767 136.91 157.005C138.279 157.211 138.703 158.259 138.22 159.153ZM117.06 66.3591C93.8895 66.3591 75.1055 85.1431 75.1055 108.313C75.1055 131.483 93.8895 150.267 117.06 150.267C140.23 150.267 159.014 131.483 159.014 108.313C159.014 85.1431 140.23 66.3591 117.06 66.3591ZM117.06 148.347C94.9506 148.347 77.0264 130.423 77.0264 108.313C77.0264 86.2037 94.9506 68.2795 117.06 68.2795C139.17 68.2795 157.094 86.2032 157.094 108.313C157.094 130.422 139.17 148.347 117.06 148.347Z" fill="black"/>
<path fill-rule="evenodd" clip-rule="evenodd" d="M116.928 116.624L129.116 74.9507L145.088 128.811H144.203C138.207 106.992 127.051 100.406 116.928 120.064C106.805 100.407 95.6986 106.992 89.7028 128.811H88.8184L104.741 74.9507L116.928 116.624Z" fill="black"/>
</g>
</g>
<defs>
<filter id="filter0_d_5_6441" x="0.0712891" y="0.222778" width="233.821" height="230.36" filterUnits="userSpaceOnUse" color-interpolation-filters="sRGB">
<feFlood flood-opacity="0" result="BackgroundImageFix"/>
<feColorMatrix in="SourceAlpha" type="matrix" values="0 0 0 0 0 0 0 0 0 0 0 0 0 0 0 0 0 0 127 0" result="hardAlpha"/>
<feOffset dy="1"/>
<feGaussianBlur stdDeviation="25"/>
<feComposite in2="hardAlpha" operator="out"/>
<feColorMatrix type="matrix" values="0 0 0 0 0 0 0 0 0 0 0 0 0 0 0 0 0 0 0.1 0"/>
<feBlend mode="normal" in2="BackgroundImageFix" result="effect1_dropShadow_5_6441"/>
<feBlend mode="normal" in="SourceGraphic" in2="effect1_dropShadow_5_6441" result="shape"/>
</filter>
<clipPath id="clip0_5_6441">
<rect width="99" height="99" fill="white" transform="translate(67.4924 64.9031)"/>
</clipPath>
</defs>
</svg>
