<svg width="235" height="231" viewBox="0 0 235 231" fill="none" xmlns="http://www.w3.org/2000/svg">
<g filter="url(#filter0_d_4_2490)">
<rect x="50.7139" y="49.0353" width="133.821" height="130.36" rx="5" fill="white"/>
<g clip-path="url(#clip0_4_2490)">
<path d="M135.014 84.8035C145.37 93.8279 145.987 108.256 136.994 118.344C127.997 128.438 115.353 130.417 104.997 121.396C94.6388 112.368 93.5332 96.8745 102.529 86.7812C111.522 76.6937 124.653 75.779 135.014 84.8035Z" fill="url(#paint0_radial_4_2490)"/>
<path d="M104.24 89.7569C95.6173 97.3443 94.9767 110.674 102.817 119.53C110.656 128.39 124.005 129.42 132.63 121.834C141.245 114.256 141.885 100.918 134.045 92.0602C126.207 83.2053 112.857 82.1787 104.24 89.7569Z" fill="url(#paint1_radial_4_2490)"/>
<path d="M129.259 116.025C122.087 121.746 111.482 120.717 105.571 113.727C99.6623 106.733 100.686 96.424 107.857 90.7036C115.02 84.9867 125.63 86.0144 131.54 93.0068C137.448 99.997 136.422 110.308 129.259 116.025Z" fill="url(#paint2_radial_4_2490)"/>
<path d="M111.109 84.6498C111.873 84.8525 112.34 85.633 112.145 86.3912C111.944 87.1397 111.165 87.5879 110.397 87.3835C109.631 87.1745 109.166 86.3969 109.362 85.6421C109.556 84.8873 110.342 84.4431 111.109 84.6498ZM112.646 87.5274C113.173 87.6667 113.49 88.2028 113.356 88.7184C113.218 89.2408 112.68 89.5486 112.155 89.407C111.63 89.2642 111.308 88.7327 111.446 88.2125C111.584 87.6941 112.12 87.3858 112.646 87.5274ZM114.453 90.2217C114.797 90.3113 115.004 90.6619 114.92 91.0045C114.833 91.3436 114.477 91.548 114.128 91.4515C113.963 91.4094 113.822 91.3032 113.735 91.1562C113.648 91.0092 113.622 90.8335 113.664 90.6676C113.751 90.329 114.106 90.1275 114.453 90.2217Z" fill="white"/>
<path d="M99.325 88.9537C91.5739 100.393 94.501 115.997 105.861 123.802C117.223 131.609 132.713 128.663 140.465 117.223C148.217 105.781 145.291 90.1789 133.932 82.3735C122.57 74.5663 107.078 77.5118 99.325 88.9537ZM138.746 105.586C138.644 108.77 137.592 111.777 135.376 114.963C129.034 124.079 115.641 126.095 106.446 119.776C103.484 117.749 101.111 114.964 99.5714 111.708C98.0313 108.452 97.3796 104.841 97.6832 101.247C98.592 103.721 102.553 105.963 105.601 105.977C109.747 105.995 114.368 104.108 118.433 101.162C123.357 97.5945 127.249 95.3192 130.826 95.6013C134.214 95.869 138.944 99.4067 138.746 105.586ZM120.304 90.5957C114.76 97.5162 110.128 100.244 105.722 101.037C102.481 101.62 98.0488 98.7672 99.3885 94.5427C99.8167 93.1863 100.437 91.8991 101.229 90.7208C105.016 85.1317 111.049 81.9978 117.314 81.6912C121.712 81.4759 125.237 84.4386 120.304 90.5957Z" fill="url(#paint3_radial_4_2490)"/>
<path d="M129.837 147.815C128.821 147.636 128.222 147.131 128.058 146.233C128.028 146.065 128.014 145.857 128.014 144.708V142.995C128.014 142.014 128.032 141.726 128.065 141.558C128.228 140.784 128.773 140.235 129.818 140.025C130.126 139.964 130.42 139.93 132.247 139.93H134.686V141.445H132.164C130.794 141.445 130.606 141.471 130.475 141.516C130.22 141.603 130.077 141.766 130.006 141.977C129.968 142.091 129.952 142.327 129.952 143.015V144.645C129.952 145.522 129.969 145.758 130.014 145.875C130.087 146.066 130.235 146.208 130.485 146.289C130.656 146.346 130.876 146.373 132.224 146.373H134.826V147.891H132.098C130.42 147.892 130.13 147.867 129.837 147.815ZM117.126 143.079C117.126 141.679 117.157 141.559 117.219 141.364C117.415 140.739 117.911 140.289 118.608 140.072C118.911 139.978 119.261 139.929 120.921 139.929H122.123V141.457H120.88C119.758 141.457 119.581 141.486 119.464 141.534C119.29 141.605 119.193 141.712 119.142 141.817C119.087 141.922 119.079 142.055 119.079 142.85V147.895H117.127L117.126 143.079ZM149.188 144.528C148.236 144.528 147.768 144.497 147.468 144.435C146.568 144.248 145.973 143.776 145.788 143.001C145.749 142.835 145.728 142.504 145.728 142.244V142.177C145.728 141.688 145.763 141.419 145.831 141.22C146.061 140.554 146.659 140.17 147.552 140.013C147.944 139.952 148.484 139.928 150.04 139.928H152.993V141.453H148.599C147.794 141.453 147.649 141.698 147.649 142.228C147.649 142.701 147.762 143.023 148.615 143.023H149.788C150.89 143.023 151.167 143.052 151.452 143.108C152.56 143.318 153.07 143.907 153.236 144.602C153.28 144.786 153.298 145.141 153.298 145.432V145.525C153.298 145.867 153.282 146.184 153.246 146.36C153.083 147.152 152.697 147.652 151.617 147.828C151.312 147.88 151.085 147.889 149.674 147.889H145.797V146.369H150.244C151.065 146.369 151.364 146.274 151.364 145.446C151.364 144.718 151.021 144.528 150.229 144.528H149.188V144.528ZM139.922 144.528C138.965 144.528 138.502 144.497 138.201 144.435C137.301 144.248 136.702 143.776 136.52 143.001C136.482 142.835 136.461 142.504 136.461 142.244V142.177C136.461 141.688 136.496 141.419 136.565 141.22C136.792 140.554 137.392 140.17 138.284 140.013C138.676 139.952 139.218 139.928 140.773 139.928H143.724V141.453H139.332C138.528 141.453 138.382 141.698 138.382 142.228C138.382 142.701 138.494 143.023 139.344 143.023H140.522C141.623 143.023 141.9 143.052 142.186 143.108C143.293 143.318 143.803 143.907 143.969 144.602C144.012 144.786 144.031 145.141 144.031 145.432V145.525C144.031 145.867 144.015 146.184 143.978 146.36C143.815 147.152 143.43 147.652 142.354 147.828C142.045 147.88 141.818 147.889 140.407 147.889H136.53V146.369H140.977C141.799 146.369 142.094 146.274 142.094 145.446C142.094 144.718 141.752 144.528 140.962 144.528H139.922V144.528ZM66.6617 146.284C67.6306 146.284 68.0518 146.033 68.1873 145.614C68.2242 145.499 68.2537 145.341 68.2537 144.947V144.717C68.2537 144.357 68.2231 144.157 68.1845 144.036C68.036 143.557 67.5773 143.366 66.6742 143.366L64.7449 143.364C62.9296 143.364 61.8626 142.502 61.6608 141.301C61.6376 141.157 61.6245 140.845 61.6245 140.364V140.24C61.6245 139.815 61.6336 139.473 61.65 139.345C61.8076 138.126 62.7147 137.439 64.263 137.266C64.64 137.215 65.3538 137.222 65.7586 137.222H69.6812V138.848L65.1117 138.845C64.326 138.845 63.8679 139.009 63.7193 139.449C63.683 139.558 63.6587 139.852 63.6587 140.19V140.33C63.6587 140.696 63.6791 140.947 63.7052 141.055C63.8412 141.592 64.3169 141.759 65.2053 141.759L67.1011 141.756C69.1245 141.756 70.0939 142.42 70.281 143.72C70.3026 143.88 70.3133 144.34 70.3133 144.514V144.944C70.3133 145.117 70.3048 145.572 70.2839 145.729C70.1285 146.953 69.3637 147.667 67.9549 147.847C67.719 147.878 67.0455 147.892 66.1316 147.892H61.7946V146.284H66.6617ZM80.4495 141.567C80.2557 140.748 79.7352 140.216 78.62 140.014C78.3371 139.969 78.0259 139.93 76.6176 139.93H75.8948C74.9055 139.93 74.4242 139.957 74.0919 139.993C72.9224 140.141 72.3242 140.645 72.1179 141.515C72.0584 141.749 72.0527 142.068 72.0527 143.058V144.579C72.0527 145.562 72.0924 146.081 72.1712 146.31C72.3997 146.986 72.8815 147.493 73.703 147.738C74.0551 147.842 74.6062 147.899 75.998 147.899H76.7027C78.0089 147.899 78.4279 147.855 78.7544 147.77C79.6377 147.54 80.2024 147.003 80.4274 146.201C80.4853 145.995 80.5153 145.562 80.5153 144.768V143.263C80.5153 142.204 80.4938 141.752 80.4495 141.567ZM78.62 144.819C78.62 145.535 78.5985 145.814 78.5554 145.922C78.5194 146.014 78.4647 146.098 78.3948 146.168C78.3249 146.238 78.2414 146.292 78.1495 146.328C77.9993 146.391 77.7124 146.424 76.7945 146.424H75.8625C74.9106 146.424 74.4922 146.392 74.3533 146.323C74.1946 146.244 74.0755 146.112 74.0092 145.924C73.9667 145.806 73.9457 145.36 73.9457 144.506V143.217C73.9457 142.398 73.9621 141.984 73.999 141.888C74.0715 141.688 74.2235 141.553 74.461 141.477C74.6096 141.429 74.9446 141.407 75.7224 141.407H76.7605C77.3841 141.407 77.9085 141.425 78.052 141.462C78.3502 141.541 78.5061 141.698 78.5753 141.928C78.6064 142.03 78.6195 142.466 78.6195 143.268V144.819H78.62ZM163.446 141.567C163.251 140.748 162.732 140.216 161.617 140.014C161.333 139.969 161.022 139.93 159.613 139.93H158.891C157.905 139.93 157.422 139.957 157.087 139.993C155.918 140.141 155.323 140.645 155.112 141.515C155.055 141.749 155.049 142.068 155.049 143.058V144.579C155.049 145.562 155.089 146.081 155.167 146.31C155.395 146.986 155.879 147.493 156.701 147.738C157.054 147.842 157.604 147.899 158.993 147.899H159.699C161.006 147.899 161.426 147.855 161.751 147.77C162.634 147.54 163.201 147.003 163.424 146.201C163.482 145.995 163.513 145.562 163.513 144.768V143.263C163.513 142.204 163.492 141.752 163.446 141.567ZM161.617 144.819C161.617 145.535 161.595 145.814 161.552 145.922C161.516 146.014 161.461 146.098 161.391 146.168C161.321 146.238 161.238 146.292 161.146 146.328C160.995 146.391 160.71 146.424 159.791 146.424H158.858C157.908 146.424 157.49 146.392 157.352 146.323C157.271 146.283 157.198 146.228 157.139 146.159C157.079 146.09 157.034 146.01 157.006 145.924C156.967 145.806 156.945 145.36 156.945 144.506V143.217C156.945 142.398 156.962 141.984 156.997 141.888C157.069 141.688 157.22 141.553 157.459 141.477C157.61 141.429 157.941 141.407 158.722 141.407H159.758C160.38 141.407 160.906 141.425 161.05 141.462C161.348 141.541 161.504 141.698 161.572 141.928C161.603 142.03 161.618 142.466 161.618 143.268V144.819H161.617ZM108.884 147.781C107.802 147.556 106.862 146.973 106.636 145.862C106.602 145.695 106.584 145.377 106.584 144.144V141.2C106.584 139.757 106.601 139.376 106.654 139.148C106.816 138.459 107.328 137.601 108.83 137.317C109.156 137.254 109.536 137.219 111.546 137.219H115.21V138.844H111.298C109.867 138.844 109.576 138.874 109.389 138.932C109.114 139.022 108.941 139.177 108.855 139.405C108.813 139.515 108.793 139.654 108.793 140.593V141.696H114.704V143.269H108.793V144.435C108.793 145.501 108.816 145.634 108.866 145.754C108.958 145.973 109.135 146.117 109.41 146.199C109.607 146.259 109.847 146.287 111.299 146.287H115.276V147.889H111.694C109.597 147.889 109.247 147.857 108.884 147.781ZM82.2932 143.151C82.2932 142.162 82.3131 141.765 82.3499 141.595C82.5296 140.79 83.1209 140.251 84.0552 140.037C84.3585 139.965 84.7543 139.929 86.0157 139.929H86.9557C88.1394 139.929 88.6304 139.972 88.9331 140.049C89.9729 140.304 90.3896 140.928 90.5512 141.445C90.6339 141.712 90.6498 141.978 90.6498 142.918V147.89H88.716V142.869C88.716 142.263 88.7035 142.009 88.678 141.916C88.6276 141.721 88.521 141.6 88.3588 141.531C88.233 141.478 87.839 141.455 86.8236 141.455H86.1228C85.1069 141.455 84.6993 141.48 84.5706 141.538C84.5036 141.567 84.4435 141.609 84.3943 141.663C84.3451 141.717 84.308 141.781 84.2854 141.851C84.252 141.946 84.2372 142.114 84.2372 142.869V147.893H82.2921C82.2932 147.739 82.2932 143.151 82.2932 143.151ZM123.99 139.932V147.892H125.94V139.932H123.99ZM123.99 137.22V138.848H125.94V137.22H123.99ZM98.8998 140.217V144.62C98.8998 145.416 98.8828 145.703 98.846 145.807C98.7677 146.025 98.6033 146.181 98.3318 146.259C98.2002 146.299 98.0018 146.321 97.2121 146.321H96.0555C95.1513 146.321 94.9523 146.283 94.8037 146.213C94.6764 146.157 94.5715 146.059 94.5055 145.936C94.4517 145.828 94.4267 145.647 94.4267 144.814V140.217H92.4912V144.535C92.4912 145.95 92.5071 146.095 92.5388 146.258C92.7049 147.081 93.277 147.53 94.1257 147.718L94.1325 147.72C94.6217 147.83 94.7986 147.827 96.14 147.827H97.0323C98.7207 147.827 98.9219 147.368 98.9418 147.315V148.22C98.9418 148.744 98.9282 148.903 98.8987 149.017C98.842 149.23 98.7099 149.381 98.4117 149.46C98.2501 149.505 97.9627 149.526 96.7483 149.526H93.3711V150.993H96.864C98.6572 150.993 98.9401 150.954 99.2207 150.884C100.149 150.649 100.613 150.063 100.763 149.381C100.802 149.2 100.824 148.861 100.824 147.697V140.216H98.8998V140.217ZM167.214 147.766V142.867C167.214 142.113 167.227 141.944 167.259 141.849C167.282 141.779 167.319 141.715 167.369 141.661C167.418 141.608 167.479 141.565 167.546 141.537C167.675 141.478 168.082 141.453 169.097 141.453H169.794C170.812 141.453 171.207 141.477 171.334 141.53C171.493 141.599 171.599 141.719 171.652 141.914C171.677 142.008 171.688 142.262 171.688 142.867V147.765H173.624V142.917C173.624 141.977 173.606 141.711 173.523 141.444C173.361 140.927 172.946 140.303 171.907 140.047C171.604 139.971 171.111 139.928 169.929 139.928H168.99C167.726 139.928 167.33 139.964 167.025 140.035C166.094 140.25 165.501 140.789 165.325 141.594C165.286 141.764 165.265 142.161 165.265 143.15V147.765H167.214V147.766Z" fill="#6D6E70"/>
</g>
</g>
<defs>
<filter id="filter0_d_4_2490" x="0.713867" y="0.0352783" width="233.821" height="230.36" filterUnits="userSpaceOnUse" color-interpolation-filters="sRGB">
<feFlood flood-opacity="0" result="BackgroundImageFix"/>
<feColorMatrix in="SourceAlpha" type="matrix" values="0 0 0 0 0 0 0 0 0 0 0 0 0 0 0 0 0 0 127 0" result="hardAlpha"/>
<feOffset dy="1"/>
<feGaussianBlur stdDeviation="25"/>
<feComposite in2="hardAlpha" operator="out"/>
<feColorMatrix type="matrix" values="0 0 0 0 0 0 0 0 0 0 0 0 0 0 0 0 0 0 0.1 0"/>
<feBlend mode="normal" in2="BackgroundImageFix" result="effect1_dropShadow_4_2490"/>
<feBlend mode="normal" in="SourceGraphic" in2="effect1_dropShadow_4_2490" result="shape"/>
</filter>
<radialGradient id="paint0_radial_4_2490" cx="0" cy="0" r="1" gradientUnits="userSpaceOnUse" gradientTransform="translate(115.563 129.687) scale(54.0753 54.4585)">
<stop stop-color="white"/>
<stop offset="0.135" stop-color="#E4E99D"/>
<stop offset="0.36" stop-color="#89BF7E"/>
<stop offset="0.562" stop-color="#75B552"/>
<stop offset="0.764" stop-color="#003713"/>
<stop offset="1" stop-color="#33A457"/>
</radialGradient>
<radialGradient id="paint1_radial_4_2490" cx="0" cy="0" r="1" gradientUnits="userSpaceOnUse" gradientTransform="translate(110.337 124.109) scale(48.0783 48.4189)">
<stop stop-color="white"/>
<stop offset="0.135" stop-color="#A4CA82"/>
<stop offset="0.149" stop-color="#9CC77D"/>
<stop offset="0.222" stop-color="#74B669"/>
<stop offset="0.285" stop-color="#54AC5E"/>
<stop offset="0.335" stop-color="#3CA658"/>
<stop offset="0.365" stop-color="#33A457"/>
<stop offset="0.551" stop-color="#6CB476"/>
<stop offset="0.579" stop-color="#63AA6E"/>
<stop offset="0.631" stop-color="#52955D"/>
<stop offset="0.703" stop-color="#367444"/>
<stop offset="0.789" stop-color="#084A25"/>
<stop offset="0.832" stop-color="#00320C"/>
<stop offset="1" stop-color="#38704A"/>
</radialGradient>
<radialGradient id="paint2_radial_4_2490" cx="0" cy="0" r="1" gradientUnits="userSpaceOnUse" gradientTransform="translate(109.773 93.8914) scale(29.158 29.3646)">
<stop stop-color="white"/>
<stop offset="0.129" stop-color="#B1D29D"/>
<stop offset="0.286" stop-color="#7CBA74"/>
<stop offset="0.477" stop-color="#33A457"/>
<stop offset="0.73" stop-color="#045229"/>
<stop offset="1" stop-color="#196535"/>
</radialGradient>
<radialGradient id="paint3_radial_4_2490" cx="0" cy="0" r="1" gradientUnits="userSpaceOnUse" gradientTransform="translate(125.006 88.2152) scale(37.6547 37.9215)">
<stop stop-color="#F8FCFE"/>
<stop offset="0.172" stop-color="#ECEEF0"/>
<stop offset="0.393" stop-color="#E4E4E5"/>
<stop offset="1" stop-color="#5D6469"/>
</radialGradient>
<clipPath id="clip0_4_2490">
<rect width="112" height="73" fill="white" transform="translate(61.6245 78)"/>
</clipPath>
</defs>
</svg>
