<svg width="235" height="231" viewBox="0 0 235 231" fill="none" xmlns="http://www.w3.org/2000/svg">
<g filter="url(#filter0_d_4_2466)">
<rect x="50.8926" y="49.0353" width="133.821" height="130.36" rx="5" fill="white"/>
<g clip-path="url(#clip0_4_2466)">
<path d="M116.179 118.474L116.11 118.602L115.994 118.787L115.91 118.893L115.818 118.999L115.71 119.113L115.579 119.227L115.51 119.284L115.441 119.34L115.357 119.397L115.28 119.447L115.187 119.496L115.103 119.546L115.003 119.589L114.903 119.631L114.795 119.666L114.688 119.702L114.573 119.73L114.45 119.752L114.327 119.773L114.196 119.787L114.066 119.802H113.758L113.605 119.787L113.45 119.766L113.312 119.744L113.174 119.709L113.036 119.674L112.913 119.624L112.79 119.574L112.675 119.518L112.567 119.461L112.467 119.39L112.367 119.319L112.275 119.248L112.191 119.17L112.106 119.085L112.029 118.999L111.96 118.907L111.891 118.822L111.829 118.722L111.776 118.63L111.722 118.531L111.676 118.431L111.637 118.332L111.599 118.232L111.569 118.133L111.538 118.034L111.515 117.927L111.499 117.828L111.484 117.729L111.468 117.629V117.537L111.461 117.438L111.468 117.282L111.476 117.126L111.491 116.977L111.522 116.828L111.553 116.679L111.584 116.529L111.63 116.38L111.683 116.238L111.737 116.103L111.799 115.968L111.868 115.833L111.945 115.706L112.022 115.578L112.106 115.457L112.198 115.343L112.291 115.23L112.398 115.123L112.498 115.024L112.613 114.925L112.728 114.832L112.852 114.747L112.975 114.669L113.105 114.598L113.244 114.534L113.382 114.477L113.52 114.42L113.674 114.378L113.82 114.342L113.974 114.314L114.135 114.293L114.296 114.278L114.466 114.271L114.642 114.278L114.811 114.285L114.965 114.307L115.119 114.328L115.265 114.363L115.403 114.399L115.526 114.441L115.649 114.484L115.764 114.534L115.872 114.59L115.972 114.647L116.072 114.704L116.156 114.768L116.241 114.832L116.317 114.896L116.387 114.967L116.51 115.102L116.617 115.237L116.702 115.372L116.763 115.493L116.817 115.607L116.855 115.706L116.878 115.784L116.894 115.841H119.73L119.737 115.742L119.744 115.635V115.515L119.737 115.387L119.722 115.252L119.698 115.11L119.66 114.961L119.622 114.805L119.568 114.649L119.507 114.485L119.437 114.322L119.353 114.152L119.253 113.988L119.145 113.818L119.031 113.654L118.892 113.491L118.746 113.327L118.585 113.171L118.408 113.015L118.216 112.867L118.009 112.724L117.786 112.597L117.547 112.469L117.294 112.355L117.017 112.249L116.725 112.15L116.418 112.071L116.087 112.001L115.741 111.944L115.372 111.901L114.98 111.88L114.573 111.873L114.265 111.88L113.966 111.901L113.674 111.929L113.382 111.979L113.09 112.043L112.813 112.114L112.536 112.199L112.267 112.299L112.006 112.412L111.753 112.533L111.507 112.661L111.268 112.81L111.038 112.959L110.815 113.122L110.6 113.3L110.392 113.485L110.2 113.676L110.016 113.882L109.839 114.095L109.678 114.315L109.524 114.542L109.378 114.777L109.255 115.025L109.132 115.273L109.032 115.536L108.939 115.799L108.855 116.076L108.794 116.353L108.74 116.637L108.701 116.928L108.678 117.219L108.671 117.524L108.678 117.766L108.694 118.014L108.717 118.249L108.755 118.483L108.801 118.71L108.862 118.937L108.923 119.157L109 119.371L109.093 119.576L109.185 119.782L109.292 119.981L109.415 120.166L109.539 120.351L109.677 120.528L109.823 120.698L109.984 120.855L110.145 121.01L110.324 121.159L110.508 121.294L110.708 121.422L110.908 121.542L111.123 121.656L111.354 121.756L111.584 121.848L111.823 121.926L112.076 122.004L112.337 122.06L112.606 122.11L112.89 122.153L113.175 122.181L113.475 122.203H113.782L114.158 122.195L114.519 122.174L114.865 122.132L115.196 122.075L115.504 122.004L115.803 121.926L116.08 121.833L116.349 121.727L116.595 121.614L116.833 121.486L117.056 121.358L117.263 121.216L117.463 121.074L117.64 120.925L117.817 120.776L117.97 120.62L118.117 120.456L118.255 120.3L118.378 120.137L118.493 119.981L118.593 119.825L118.694 119.669L118.77 119.52L118.847 119.371L118.916 119.229L118.97 119.094L119.024 118.966L119.07 118.846L119.132 118.64L119.17 118.476H116.179V118.474H116.179ZM94.4459 119.205L94.4537 119.064L94.4845 118.85L94.5456 118.553L94.6379 118.155L94.6841 117.949L94.7689 117.587L94.8837 117.09L95.03 116.473L95.1918 115.77L95.376 115.003L95.5677 114.194L95.7597 113.363L95.9517 112.547L96.1364 111.758L96.305 111.027L96.4589 110.374L96.5893 109.82L96.6893 109.401L96.7508 109.124L96.7738 109.032H94.1227L91.9174 118.425L91.8791 118.574L91.8561 118.716L91.8331 118.865L91.8099 119.007L91.8024 119.149L91.787 119.285L91.7794 119.42V119.554L91.787 119.738L91.8024 119.923L91.8253 120.093L91.8561 120.257L91.9023 120.413L91.9482 120.562L92.0098 120.704L92.0708 120.839L92.1407 120.967L92.225 121.087L92.3095 121.194L92.4019 121.3L92.4942 121.4L92.602 121.492L92.7019 121.577L92.8169 121.655L92.932 121.733L93.0468 121.797L93.1697 121.861L93.3006 121.918L93.4235 121.967L93.5542 122.017L93.6846 122.052L93.8153 122.088L93.9536 122.123L94.0843 122.145L94.2221 122.166L94.3606 122.187L94.491 122.202L94.6217 122.209L94.76 122.216H95.0676L95.2442 122.201L95.4135 122.194L95.5596 122.18L95.8051 122.145L95.9512 122.123L95.9898 121.981L96.0438 121.733L96.1208 121.406L96.2051 121.051L96.282 120.703L96.3587 120.398L96.4127 120.178L96.4357 120.078H96.3509L96.1972 120.085L95.982 120.092L95.7438 120.099L95.5669 120.092L95.4057 120.078L95.252 120.057L95.1213 120.028L95.0063 119.993L94.8991 119.95L94.8067 119.901L94.7222 119.844L94.653 119.78L94.5915 119.709L94.5453 119.638L94.5072 119.56L94.4764 119.475L94.461 119.389L94.4454 119.297V119.205H94.4459V119.205ZM132.194 111.9H128.482L123.725 115.862L125.331 109.01H122.649L119.614 122.01H122.288L123.026 118.851L124.671 117.644L126.946 122.01H129.927L126.7 116.16L132.194 111.9ZM88.6746 112.596L88.667 112.475L88.6514 112.361L88.6209 112.255L88.5749 112.141L88.5131 112.041L88.444 111.942L88.3592 111.857L88.2593 111.772L88.1361 111.694L88.0057 111.623L87.8593 111.566L87.6979 111.516L87.5212 111.473L87.3214 111.445L87.1062 111.424L86.8834 111.417H84.1709L83.556 114.044H86.5228L86.6533 114.037L86.784 114.029L86.9144 114.015L87.0373 113.994L87.1529 113.98L87.2679 113.952L87.3827 113.923L87.4826 113.895L87.5828 113.866L87.6827 113.831L87.7748 113.788L87.8596 113.746L87.9439 113.703L88.0208 113.661L88.0978 113.611L88.1669 113.561L88.2363 113.504L88.2903 113.447L88.3516 113.391L88.3981 113.334L88.4518 113.27L88.4899 113.213L88.528 113.149L88.5663 113.078L88.5893 113.014L88.6201 112.95L88.6357 112.879L88.6509 112.808L88.6665 112.737L88.6741 112.666V112.596H88.6746ZM87.768 117.835L87.7602 117.715L87.7446 117.601L87.714 117.48L87.6676 117.359L87.6446 117.303L87.6063 117.239L87.5755 117.182L87.5293 117.125L87.4829 117.069L87.437 117.019L87.3759 116.962L87.3144 116.913L87.253 116.863L87.1761 116.814L87.0994 116.771L87.0146 116.728L86.9225 116.685L86.8223 116.65L86.7224 116.615L86.6074 116.579L86.4923 116.551L86.3616 116.523L86.2309 116.501L86.0929 116.48L85.9387 116.466L85.7853 116.459L85.6238 116.452H82.9959L82.2579 119.59H85.2014L85.3624 119.582L85.5236 119.568L85.67 119.554L85.8161 119.539L85.9546 119.518L86.0929 119.49L86.2236 119.454L86.3467 119.426L86.4696 119.383L86.5847 119.348L86.6924 119.298L86.7923 119.256L86.892 119.199L86.9919 119.149L87.0764 119.092L87.1609 119.029L87.2376 118.964L87.3068 118.9L87.3764 118.829L87.4375 118.758L87.4991 118.687L87.5452 118.609L87.5911 118.531L87.6295 118.453L87.6678 118.368L87.6984 118.283L87.7213 118.197L87.7446 118.112L87.7521 118.02L87.7599 117.927L87.768 117.835ZM79.8369 117.992L79.8987 117.736L79.9908 117.339L80.1139 116.82L80.26 116.195L80.4212 115.499L80.5981 114.74L80.7901 113.952L80.9748 113.156L81.1593 112.368L81.3362 111.608L81.5052 110.913L81.6513 110.288L81.7664 109.762L81.8663 109.365L81.9276 109.102L81.9432 109.017H87.3459L87.6686 109.038L87.9679 109.06L88.2598 109.095L88.5366 109.145L88.7977 109.195L89.0435 109.259L89.2741 109.329L89.4969 109.408L89.697 109.486L89.889 109.578L90.0735 109.67L90.2423 109.77L90.3959 109.876L90.5423 109.99L90.6805 110.103L90.8037 110.217L90.9114 110.338L91.0189 110.458L91.1113 110.586L91.1882 110.714L91.2647 110.835L91.3343 110.962L91.3878 111.09L91.4418 111.218L91.4802 111.338L91.5183 111.466L91.5412 111.587L91.5642 111.707L91.5798 111.821L91.5871 111.935V112.048L91.5798 112.276L91.5563 112.503L91.5258 112.709L91.4799 112.914L91.4181 113.099L91.3489 113.284L91.2641 113.454L91.1801 113.618L91.08 113.774L90.98 113.916L90.8653 114.051L90.7497 114.179L90.6346 114.299L90.5115 114.405L90.3811 114.512L90.2582 114.611L90.1275 114.696L89.9968 114.781L89.8663 114.852L89.7432 114.923L89.4974 115.044L89.2668 115.143L89.0665 115.221L88.8977 115.278L88.7672 115.313L88.6824 115.342L88.7516 115.363L88.8512 115.4L88.9744 115.45L89.1124 115.521L89.2666 115.606L89.4351 115.706L89.5199 115.77L89.6041 115.834L89.6965 115.905L89.7808 115.976L89.8655 116.054L89.9496 116.146L90.0265 116.238L90.1113 116.331L90.1807 116.437L90.2574 116.551L90.3265 116.665L90.3878 116.785L90.4491 116.92L90.4953 117.056L90.5415 117.204L90.5796 117.354L90.6104 117.51L90.6336 117.68L90.6495 117.85L90.6565 118.035L90.6495 118.234L90.6336 118.44L90.6031 118.632L90.5566 118.83L90.5032 119.022L90.4335 119.207L90.3571 119.392L90.2644 119.569L90.1645 119.746L90.0497 119.916L89.9266 120.087L89.7959 120.243L89.6498 120.399L89.4964 120.555L89.3349 120.697L89.1583 120.832L88.9736 120.967L88.7816 121.095L88.5744 121.216L88.3668 121.322L88.144 121.428L87.9136 121.528L87.6678 121.613L87.4221 121.698L87.1683 121.769L86.8993 121.833L86.6303 121.883L86.3462 121.933L86.0616 121.968L85.7621 121.989L85.4626 122.004L85.1474 122.011H83.6257L83.3645 122.004L83.1104 121.989L82.865 121.968L82.6343 121.933L82.4037 121.89L82.1809 121.833L81.9738 121.769L81.7737 121.698L81.5738 121.62L81.3894 121.528L81.2125 121.435L81.0513 121.329L80.8898 121.223L80.7437 121.102L80.6054 120.974L80.4747 120.839L80.3516 120.704L80.2444 120.555L80.1442 120.406L80.0597 120.25L79.9754 120.087L79.9138 119.916L79.8528 119.746L79.8066 119.569L79.7682 119.384L79.7453 119.192L79.7299 119V118.808L79.7372 118.609L79.7602 118.403L79.7909 118.205L79.8369 117.992ZM139.81 112.596V112.475L139.787 112.361L139.756 112.255L139.71 112.141L139.656 112.041L139.579 111.942L139.495 111.857L139.395 111.772L139.28 111.694L139.142 111.623L138.995 111.566L138.834 111.516L138.657 111.473L138.457 111.445L138.242 111.424L138.012 111.417H135.306L134.692 114.044H137.658L137.789 114.037L137.919 114.029L138.05 114.015L138.173 113.994L138.288 113.98L138.403 113.952L138.519 113.923L138.619 113.895L138.719 113.866L138.819 113.831L138.911 113.788L138.995 113.746L139.08 113.703L139.156 113.661L139.233 113.611L139.303 113.561L139.372 113.504L139.426 113.447L139.487 113.391L139.541 113.334L139.587 113.27L139.625 113.213L139.664 113.149L139.702 113.078L139.733 113.014L139.756 112.95L139.779 112.879L139.795 112.808L139.802 112.737L139.81 112.666L139.81 112.596ZM138.903 117.835L138.896 117.715L138.88 117.601L138.849 117.48L138.803 117.359L138.78 117.303L138.742 117.239L138.711 117.182L138.665 117.125L138.619 117.069L138.573 117.019L138.511 116.962L138.45 116.913L138.388 116.863L138.312 116.814L138.235 116.771L138.151 116.728L138.058 116.685L137.958 116.65L137.858 116.615L137.743 116.579L137.628 116.551L137.497 116.523L137.367 116.501L137.229 116.48L137.082 116.466L136.921 116.459L136.76 116.452H134.131L133.394 119.59H136.345L136.499 119.583L136.66 119.568L136.806 119.554L136.952 119.54L137.099 119.518L137.229 119.49L137.36 119.455L137.483 119.426L137.606 119.383L137.721 119.348L137.829 119.299L137.936 119.256L138.029 119.199L138.129 119.149L138.213 119.093L138.298 119.029L138.374 118.964L138.444 118.9L138.513 118.829L138.574 118.758L138.636 118.688L138.682 118.609L138.728 118.532L138.774 118.453L138.805 118.368L138.836 118.283L138.859 118.198L138.882 118.112L138.89 118.02L138.897 117.928L138.903 117.835ZM130.972 117.992L131.033 117.736L131.126 117.339L131.249 116.82L131.395 116.195L131.557 115.499L131.734 114.74L131.918 113.952L132.11 113.156L132.295 112.368L132.471 111.608L132.633 110.913L132.779 110.288L132.902 109.762L133.002 109.365L133.056 109.102L133.079 109.017H138.481L138.804 109.038L139.112 109.06L139.396 109.095L139.673 109.145L139.934 109.195L140.18 109.259L140.41 109.329L140.633 109.408L140.841 109.486L141.033 109.578L141.21 109.67L141.378 109.77L141.532 109.876L141.678 109.99L141.817 110.103L141.94 110.217L142.047 110.338L142.155 110.458L142.247 110.586L142.332 110.714L142.409 110.835L142.47 110.962L142.531 111.09L142.577 111.218L142.615 111.338L142.654 111.466L142.684 111.587L142.7 111.707L142.715 111.821L142.723 111.935L142.731 112.048L142.723 112.276L142.7 112.503L142.662 112.709L142.615 112.914L142.554 113.099L142.485 113.284L142.408 113.454L142.316 113.618L142.223 113.774L142.116 113.916L142.008 114.051L141.894 114.179L141.77 114.299L141.647 114.405L141.516 114.512L141.393 114.611L141.263 114.696L141.132 114.781L141.001 114.852L140.878 114.923L140.632 115.044L140.41 115.143L140.203 115.221L140.034 115.278L139.903 115.313L139.819 115.342L139.888 115.363L139.987 115.4L140.11 115.45L140.248 115.521L140.402 115.606L140.571 115.706L140.655 115.77L140.739 115.834L140.832 115.905L140.916 115.976L141.001 116.054L141.085 116.146L141.162 116.238L141.246 116.331L141.323 116.437L141.392 116.551L141.462 116.665L141.523 116.785L141.585 116.92L141.638 117.056L141.685 117.204L141.723 117.354L141.753 117.51L141.776 117.68L141.792 117.85V118.035L141.785 118.234L141.769 118.44L141.738 118.632L141.692 118.83L141.638 119.022L141.569 119.207L141.492 119.392L141.408 119.569L141.3 119.746L141.192 119.916L141.069 120.087L140.931 120.243L140.785 120.399L140.631 120.555L140.47 120.697L140.293 120.832L140.109 120.967L139.917 121.095L139.709 121.216L139.502 121.322L139.279 121.428L139.048 121.528L138.803 121.613L138.557 121.698L138.304 121.769L138.035 121.833L137.766 121.883L137.481 121.933L137.197 121.968L136.897 121.989L136.598 122.004L136.282 122.011H134.761L134.5 122.004L134.246 121.989L134 121.968L133.77 121.933L133.539 121.89L133.316 121.833L133.109 121.769L132.908 121.698L132.709 121.62L132.524 121.528L132.347 121.435L132.186 121.329L132.025 121.223L131.878 121.102L131.74 120.974L131.61 120.839L131.487 120.704L131.379 120.555L131.279 120.406L131.195 120.25L131.11 120.087L131.049 119.916L130.987 119.746L130.941 119.569L130.903 119.384L130.88 119.192L130.864 119V118.808L130.871 118.609L130.895 118.403L130.925 118.205L130.972 117.992ZM161.105 111.907L160.836 111.914L160.582 111.928L160.329 111.949L160.083 111.978L159.837 112.021L159.606 112.07L159.376 112.127L159.153 112.198L158.93 112.269L158.723 112.355L158.515 112.454L158.315 112.553L158.115 112.667L157.931 112.781L157.746 112.909L157.578 113.051L157.408 113.192L157.24 113.349L157.086 113.512L156.94 113.683L156.794 113.86L156.655 114.045L156.532 114.244L156.409 114.442L156.294 114.655L156.186 114.875L156.087 115.11L155.987 115.344L155.902 115.585L155.825 115.841L155.748 116.104L155.687 116.367L155.626 116.636L155.549 116.97L155.464 117.354L155.364 117.78L155.257 118.234L155.149 118.703L155.042 119.186L154.927 119.662L154.819 120.123L154.72 120.563L154.627 120.96L154.543 121.308L154.473 121.599L154.427 121.826L154.389 121.968L154.382 122.018H157.033L157.048 121.968L157.079 121.833L157.125 121.62L157.195 121.344L157.272 121.01L157.364 120.626L157.456 120.207L157.563 119.76L157.671 119.306L157.778 118.837L157.886 118.376L157.994 117.936L158.086 117.517L158.179 117.134L158.256 116.8L158.325 116.523L158.363 116.367L158.41 116.211L158.456 116.069L158.502 115.927L158.556 115.8L158.61 115.672L158.671 115.551L158.732 115.437L158.801 115.331L158.871 115.224L158.94 115.125L159.01 115.04L159.087 114.948L159.171 114.869L159.255 114.791L159.34 114.727L159.424 114.656L159.516 114.6L159.609 114.543L159.709 114.493L159.801 114.451L159.909 114.408L160.008 114.365L160.116 114.337L160.223 114.308L160.331 114.28L160.446 114.259L160.561 114.244L160.677 114.23L160.8 114.223L160.915 114.216H161.045L161.337 114.223L161.568 114.237L161.752 114.258L161.883 114.28L161.921 114.095L161.982 113.832L162.059 113.506L162.144 113.151L162.22 112.796L162.305 112.462L162.366 112.192L162.413 111.994L162.297 111.979L162.167 111.965L162.021 111.95L161.867 111.936L161.69 111.929L161.505 111.915H161.314L161.105 111.907ZM170.142 125.879L179.057 111.907H176.183L172.086 118.481L171.134 111.9H168.06L167.737 111.906L167.422 111.914L167.115 111.935L166.823 111.97L166.538 112.005L166.261 112.055L165.993 112.112L165.731 112.176L165.485 112.247L165.248 112.332L165.017 112.417L164.794 112.517L164.579 112.623L164.379 112.743L164.179 112.864L163.994 112.999L163.818 113.134L163.641 113.284L163.479 113.447L163.326 113.611L163.179 113.781L163.041 113.966L162.91 114.157L162.788 114.349L162.673 114.562L162.565 114.775L162.465 114.996L162.381 115.223L162.289 115.464L162.212 115.713L162.142 115.968L162.081 116.231L162.012 116.529L161.927 116.884L161.835 117.289L161.727 117.729L161.62 118.197L161.505 118.68L161.389 119.17L161.282 119.653L161.167 120.121L161.067 120.555L160.975 120.959L160.89 121.307L160.821 121.605L160.767 121.825L160.737 121.967L160.721 122.017H163.38L163.396 121.967L163.426 121.832L163.472 121.619L163.542 121.343L163.619 121.002L163.711 120.612L163.811 120.185L163.919 119.731L164.034 119.255L164.141 118.772L164.256 118.282L164.371 117.806L164.479 117.352L164.579 116.918L164.663 116.528L164.747 116.187L164.786 116.038L164.824 115.896L164.878 115.761L164.924 115.633L164.985 115.506L165.047 115.392L165.116 115.279L165.185 115.179L165.262 115.08L165.346 114.988L165.424 114.902L165.516 114.817L165.608 114.746L165.7 114.675L165.8 114.611L165.9 114.555L166.008 114.505L166.115 114.455L166.223 114.412L166.338 114.377L166.453 114.349L166.568 114.32L166.683 114.299L166.807 114.285L166.93 114.277L167.06 114.271H167.183L167.314 114.277L167.437 114.285L167.567 114.299L167.698 114.32L167.836 114.341L168.39 111.956L168.482 112.439L168.582 113.021L168.697 113.674L168.828 114.398L168.966 115.165L169.104 115.961L169.25 116.763L169.389 117.558L169.527 118.332L169.65 119.056L169.765 119.716L169.872 120.298L169.957 120.781L170.018 121.143L170.064 121.378L170.072 121.463L167.298 125.879H170.141V125.879H170.142ZM101.124 115.074L101.178 114.996L101.293 114.86L101.377 114.782L101.477 114.69L101.6 114.598L101.739 114.498L101.892 114.406L102.069 114.314L102.162 114.271L102.269 114.228L102.369 114.193L102.484 114.15L102.599 114.122L102.722 114.087L102.853 114.065L102.984 114.044L103.122 114.022L103.268 114.008L103.422 114.001H103.768L103.952 114.015L104.113 114.037L104.275 114.065L104.413 114.093L104.551 114.136L104.666 114.179L104.774 114.228L104.866 114.285L104.95 114.349L105.019 114.413L105.073 114.484L105.119 114.555L105.15 114.633L105.173 114.704L105.181 114.789L105.173 114.846L105.165 114.896L105.15 114.946L105.127 114.995L105.096 115.045L105.065 115.088L105.027 115.13L104.981 115.166L104.927 115.208L104.873 115.244L104.812 115.279L104.742 115.308L104.588 115.372L104.411 115.428L104.211 115.485L103.996 115.534L103.758 115.577L103.497 115.627L102.913 115.712L102.259 115.797L101.967 115.84L101.676 115.882L101.398 115.932L101.122 115.982L100.86 116.038L100.599 116.095L100.353 116.152L100.108 116.216L99.8773 116.287L99.6545 116.358L99.4317 116.436L99.224 116.521L99.0242 116.607L98.8319 116.692L98.6475 116.792L98.4784 116.891L98.3172 116.997L98.1554 117.104L98.0174 117.218L97.8792 117.338L97.7563 117.466L97.6407 117.601L97.5332 117.736L97.4409 117.878L97.3566 118.027L97.2796 118.183L97.2183 118.346L97.1719 118.517L97.1257 118.687L97.1025 118.872L97.0795 119.057V119.397L97.0955 119.533L97.1108 119.675L97.1416 119.81L97.1722 119.952L97.2186 120.087L97.2645 120.222L97.3258 120.35L97.3874 120.477L97.4638 120.605L97.5405 120.733L97.6329 120.854L97.7252 120.967L97.8251 121.081L97.9326 121.195L98.0479 121.301L98.1713 121.401L98.3018 121.5L98.4401 121.592L98.5864 121.677L98.7325 121.756L98.8937 121.833L99.055 121.904L99.224 121.968L99.4009 122.025L99.5856 122.075L99.7774 122.118L99.9775 122.153L100.177 122.181L100.385 122.203L100.6 122.217H101.007L101.184 122.203L101.361 122.188L101.53 122.167L101.691 122.146L101.845 122.117L101.991 122.082L102.137 122.046L102.276 122.004L102.414 121.961L102.545 121.911L102.667 121.862L102.89 121.762L103.098 121.649L103.282 121.542L103.444 121.436L103.582 121.336L103.705 121.244L103.874 121.095L103.951 121.024L103.959 121.244L103.982 121.492L104.004 121.756L104.027 122.011H106.771L106.733 121.826L106.695 121.606L106.672 121.478L106.656 121.344L106.641 121.195L106.633 121.038L106.625 120.868L106.633 120.691V120.499L106.656 120.3L106.679 120.087L106.71 119.867L106.756 119.633L106.81 119.384L106.886 119.058L106.987 118.639L107.102 118.142L107.232 117.602L107.363 117.049L107.494 116.495L107.609 115.977L107.716 115.515L107.754 115.316L107.778 115.125L107.801 114.933L107.808 114.748L107.801 114.564L107.794 114.386L107.771 114.216L107.74 114.045L107.694 113.889L107.64 113.726L107.57 113.577L107.501 113.428L107.409 113.286L107.316 113.151L107.209 113.023L107.086 112.902L106.955 112.782L106.817 112.675L106.663 112.569L106.502 112.469L106.333 112.384L106.149 112.299L105.949 112.221L105.741 112.15L105.526 112.093L105.295 112.037L105.057 111.994L104.803 111.951L104.542 111.923L104.265 111.901L103.981 111.887L103.681 111.88L103.297 111.894L102.935 111.916L102.582 111.951L102.251 112.001L101.936 112.065L101.637 112.143L101.352 112.228L101.083 112.32L100.83 112.427L100.584 112.54L100.361 112.654L100.146 112.782L99.9383 112.91L99.7539 113.045L99.577 113.18L99.4158 113.322L99.2621 113.457L99.116 113.599L98.9853 113.741L98.8703 113.876L98.7552 114.019L98.6553 114.146L98.5705 114.274L98.4865 114.395L98.348 114.622L98.248 114.814L98.1716 114.97L98.1249 115.076H101.124V115.074H101.124ZM102.123 117.708L102.384 117.665L102.73 117.622L103.114 117.565L103.514 117.509L103.899 117.452L104.237 117.409L104.498 117.374L104.651 117.353L104.613 117.495L104.567 117.658L104.529 117.829L104.491 117.984L104.453 118.098L104.414 118.212L104.376 118.318L104.322 118.425L104.268 118.531L104.207 118.63L104.145 118.723L104.076 118.815L103.999 118.908L103.922 118.993L103.838 119.078L103.745 119.164L103.653 119.241L103.561 119.312L103.461 119.383L103.353 119.447L103.246 119.511L103.138 119.575L103.023 119.632L102.908 119.682L102.792 119.732L102.669 119.774L102.546 119.817L102.416 119.852L102.285 119.888L102.162 119.916L102.024 119.937L101.893 119.959L101.755 119.973L101.617 119.988L101.479 119.995H101.341L101.172 119.988L101.01 119.973L100.849 119.952L100.711 119.916L100.573 119.867L100.449 119.817L100.342 119.761L100.234 119.689L100.15 119.619L100.065 119.541L99.996 119.455L99.942 119.363L99.8958 119.27L99.8653 119.171L99.8496 119.072L99.8418 118.965L99.8496 118.88L99.8653 118.788L99.8958 118.695L99.942 118.61L100.003 118.518L100.08 118.425L100.18 118.34L100.295 118.255L100.442 118.17L100.603 118.091L100.787 118.013L100.994 117.943L101.233 117.871L101.502 117.815L101.793 117.758L102.123 117.708ZM148.894 114.115H149.062L149.216 114.122L149.37 114.136L149.516 114.157L149.654 114.186L149.785 114.214L149.916 114.25L150.039 114.285L150.154 114.328L150.261 114.37L150.361 114.42L150.461 114.477L150.554 114.534L150.638 114.59L150.715 114.654L150.792 114.719L150.861 114.789L150.931 114.86L150.984 114.931L151.038 115.002L151.084 115.073L151.131 115.151L151.169 115.23L151.199 115.308L151.23 115.385L151.253 115.464L151.276 115.542L151.284 115.62L151.291 115.698L151.299 115.776V115.932H146.181L146.212 115.826L146.265 115.705L146.327 115.57L146.419 115.428L146.519 115.279L146.642 115.13L146.704 115.052L146.781 114.981L146.857 114.903L146.941 114.832L147.026 114.761L147.111 114.69L147.21 114.619L147.311 114.555L147.418 114.491L147.526 114.434L147.641 114.378L147.756 114.328L147.886 114.278L148.01 114.236L148.148 114.2L148.286 114.172L148.432 114.144L148.578 114.13L148.732 114.115H148.893V114.115H148.894ZM150.469 118.978L150.446 119.028L150.408 119.085L150.354 119.149L150.293 119.227L150.208 119.312L150.116 119.398L150.008 119.483L149.885 119.575L149.739 119.661L149.586 119.738L149.408 119.816L149.224 119.88L149.116 119.909L149.017 119.937L148.902 119.958L148.786 119.98L148.671 119.994L148.548 120.001L148.418 120.008L148.287 120.015L148.095 120.008L147.91 119.994L147.742 119.972L147.58 119.944L147.419 119.901L147.273 119.859L147.135 119.809L147.012 119.752L146.888 119.688L146.773 119.624L146.666 119.553L146.566 119.475L146.473 119.397L146.381 119.312L146.304 119.226L146.235 119.141L146.166 119.056L146.104 118.963L146.05 118.878L145.997 118.793L145.958 118.7L145.92 118.615L145.882 118.53L145.859 118.452L145.813 118.295L145.789 118.153L145.774 118.033L145.782 117.933H153.882L153.905 117.848L153.936 117.713L153.974 117.549L154.012 117.358L154.05 117.137L154.081 116.903L154.104 116.655L154.111 116.399L154.104 116.179L154.088 115.959L154.065 115.739L154.027 115.526L153.981 115.313L153.927 115.107L153.858 114.894L153.781 114.695L153.696 114.496L153.596 114.298L153.489 114.113L153.374 113.928L153.243 113.744L153.105 113.573L152.959 113.41L152.805 113.246L152.636 113.09L152.451 112.948L152.267 112.806L152.067 112.679L151.852 112.558L151.637 112.444L151.406 112.338L151.161 112.245L150.915 112.16L150.654 112.082L150.377 112.018L150.1 111.961L149.808 111.919L149.501 111.89L149.193 111.876L148.862 111.869L148.57 111.876L148.271 111.897L147.986 111.933L147.694 111.975L147.417 112.039L147.141 112.117L146.872 112.203L146.61 112.302L146.357 112.416L146.103 112.536L145.865 112.664L145.627 112.813L145.404 112.962L145.189 113.125L144.973 113.296L144.774 113.481L144.582 113.673L144.405 113.871L144.236 114.077L144.075 114.29L143.921 114.51L143.782 114.737L143.659 114.971L143.544 115.213L143.437 115.462L143.352 115.71L143.268 115.973L143.207 116.229L143.161 116.498L143.122 116.768L143.099 117.038L143.092 117.314L143.099 117.577L143.115 117.84L143.138 118.096L143.176 118.344L143.222 118.586L143.284 118.827L143.353 119.061L143.43 119.281L143.522 119.502L143.622 119.715L143.729 119.921L143.853 120.119L143.983 120.311L144.121 120.488L144.275 120.666L144.429 120.829L144.598 120.985L144.782 121.134L144.967 121.276L145.167 121.411L145.374 121.532L145.589 121.646L145.812 121.745L146.05 121.837L146.289 121.923L146.542 121.994L146.804 122.058L147.072 122.108L147.35 122.15L147.641 122.179L147.933 122.2H148.241L148.61 122.193L148.963 122.172L149.301 122.129L149.624 122.079L149.932 122.009L150.224 121.931L150.5 121.838L150.762 121.738L151.008 121.632L151.238 121.512L151.453 121.391L151.661 121.256L151.853 121.121L152.03 120.986L152.199 120.843L152.352 120.695L152.498 120.553L152.629 120.41L152.752 120.269L152.86 120.126L152.96 119.984L153.052 119.857L153.136 119.721L153.206 119.601L153.329 119.38L153.414 119.196L153.468 119.061L153.506 118.975H150.47V118.978H150.469ZM63.0299 107.534L63.0223 107.412L63.0066 107.292L62.9761 107.171L62.9378 107.05L62.8767 106.93L62.8068 106.809L62.7609 106.753L62.7147 106.696L62.6607 106.646L62.6072 106.589L62.5378 106.539L62.4765 106.489L62.3996 106.447L62.3226 106.404L62.2383 106.362L62.1462 106.319L62.0461 106.283L61.9464 106.255L61.8387 106.22L61.7239 106.199L61.6007 106.17L61.47 106.156L61.332 106.142L61.1859 106.128L61.0396 106.12H58.204L57.443 109.365H60.4327L60.625 109.358L60.8019 109.344L60.9783 109.322L61.1397 109.301L61.3012 109.273L61.4471 109.244L61.5853 109.202L61.716 109.166L61.8467 109.124L61.9618 109.074L62.0695 109.017L62.1765 108.967L62.2689 108.903L62.3612 108.847L62.4455 108.783L62.5224 108.712L62.5918 108.648L62.661 108.577L62.715 108.499L62.769 108.428L62.8151 108.35L62.8613 108.271L62.8999 108.194L62.9305 108.108L62.9534 108.03L62.9766 107.945L62.9996 107.867L63.0226 107.697L63.0299 107.534ZM70.2308 107.534L70.223 107.412L70.2071 107.292L70.1765 107.171L70.1382 107.05L70.1077 106.986L70.0769 106.93L70.0461 106.866L70.008 106.809L69.9618 106.753L69.9151 106.696L69.8617 106.646L69.8082 106.589L69.739 106.539L69.6696 106.489L69.6002 106.447L69.5233 106.404L69.439 106.362L69.3467 106.319L69.2473 106.284L69.1474 106.255L69.0396 106.22L68.9243 106.199L68.8014 106.17L68.6707 106.156L68.5324 106.142L68.3942 106.127L68.2403 106.12H65.4044L64.6515 109.365H67.6334L67.8254 109.358L68.0023 109.344L68.1795 109.322L68.3404 109.301L68.5017 109.273L68.648 109.244L68.7863 109.202L68.9246 109.166L69.0477 109.124L69.1625 109.074L69.2781 109.017L69.3775 108.967L69.4774 108.903L69.5622 108.846L69.6464 108.783L69.7231 108.712L69.7923 108.647L69.8617 108.576L69.9151 108.498L69.9691 108.427L70.0156 108.349L70.0615 108.271L70.0998 108.193L70.1306 108.108L70.1536 108.03L70.1765 107.945L70.1995 107.866L70.2227 107.696L70.2308 107.534ZM62.0617 112.418L62.0539 112.305L62.0385 112.184L62.0155 112.056L61.9691 111.935L61.9461 111.879L61.9154 111.815L61.8773 111.758L61.8387 111.701L61.7925 111.645L61.7466 111.588L61.6926 111.531L61.6388 111.482L61.5775 111.432L61.5084 111.382L61.4314 111.333L61.3545 111.29L61.2697 111.247L61.1776 111.212L61.0852 111.176L60.9775 111.141L60.87 111.112L60.7547 111.084L60.6315 111.063L60.5011 111.041L60.3631 111.027L60.2246 111.013L60.0709 111.005H57.2432L56.4824 114.257H59.2645L59.4643 114.25L59.6564 114.243L59.8411 114.228L60.0099 114.214L60.1789 114.193L60.3326 114.164L60.4787 114.129L60.625 114.094L60.7555 114.051L60.8783 114.008L60.9939 113.958L61.109 113.909L61.2089 113.852L61.3091 113.795L61.3933 113.731L61.4781 113.667L61.5548 113.603L61.6318 113.532L61.6931 113.461L61.7546 113.39L61.8081 113.312L61.8543 113.234L61.8927 113.156L61.9307 113.078L61.9615 113L61.9923 112.915L62.0153 112.837L62.0307 112.751L62.0536 112.588L62.0617 112.418ZM69.2624 112.418L69.2548 112.305L69.2392 112.184L69.2162 112.056L69.1701 111.935L69.1471 111.879L69.1163 111.815L69.078 111.758L69.0399 111.701L68.9937 111.645L68.9473 111.587L68.8933 111.531L68.8392 111.481L68.7782 111.431L68.7088 111.382L68.6318 111.332L68.5551 111.29L68.4709 111.247L68.3785 111.211L68.2862 111.176L68.1789 111.141L68.0712 111.112L67.9559 111.083L67.8328 111.062L67.702 111.041L67.5713 111.026L67.425 111.012L67.2716 111.005H64.4439L63.6831 114.257H66.4652L66.665 114.249L66.857 114.243L67.0412 114.228L67.21 114.214L67.3791 114.192L67.5327 114.164L67.6791 114.129L67.8252 114.093L67.9559 114.05L68.0788 114.008L68.2022 113.958L68.3094 113.908L68.4093 113.851L68.5092 113.795L68.6013 113.731L68.6861 113.666L68.7555 113.603L68.8325 113.532L68.8935 113.46L68.9551 113.389L69.0091 113.311L69.0553 113.233L69.0933 113.156L69.1317 113.077L69.1622 113L69.193 112.914L69.2162 112.836L69.2314 112.751L69.2546 112.587L69.2624 112.418ZM76.7939 110.437V110.317L76.7782 110.196L76.7477 110.075L76.7091 109.954L76.6788 109.89L76.6481 109.834L76.6173 109.777L76.5789 109.72L76.5327 109.656L76.4863 109.606L76.4328 109.55L76.371 109.5L76.31 109.443L76.2403 109.401L76.1712 109.351L76.0942 109.308L76.0099 109.266L75.9176 109.223L75.8174 109.188L75.7175 109.159L75.6097 109.124L75.4949 109.103L75.3715 109.081L75.2408 109.06L75.1028 109.046L74.9565 109.031L74.8104 109.024H71.9751L71.2143 112.269H74.1963L74.3883 112.262L74.573 112.248L74.7418 112.226L74.9108 112.205L75.0645 112.177L75.2106 112.149L75.3569 112.113L75.4874 112.07L75.6105 112.028L75.7337 111.978L75.8411 111.928L75.9413 111.872L76.0412 111.815L76.1333 111.751L76.2179 111.687L76.2946 111.623L76.364 111.552L76.4253 111.481L76.4866 111.403L76.5406 111.332L76.5868 111.254L76.6327 111.176L76.6635 111.098L76.7021 111.02L76.725 110.935L76.748 110.857L76.7634 110.772L76.7863 110.601L76.7939 110.437ZM75.7561 115.528V115.407L75.7404 115.286L75.7097 115.166L75.6637 115.045L75.6097 114.924L75.5328 114.804L75.4947 114.747L75.4482 114.69L75.3942 114.64L75.3332 114.584L75.2716 114.534L75.2028 114.484L75.1334 114.441L75.0488 114.399L74.9646 114.356L74.8798 114.313L74.7799 114.278L74.6799 114.249L74.5649 114.214L74.4498 114.193L74.3267 114.172L74.2038 114.15L74.0656 114.136L73.9195 114.122L73.7658 114.114H70.9378L70.1768 117.359H73.1585L73.3502 117.352L73.5347 117.338L73.7118 117.317L73.8728 117.295L74.0267 117.267L74.1806 117.239L74.3186 117.203L74.4493 117.16L74.5725 117.118L74.6953 117.068L74.8028 117.012L74.9106 116.962L75.0027 116.898L75.095 116.841L75.1795 116.777L75.2565 116.706L75.3256 116.642L75.3869 116.571L75.4482 116.493L75.5023 116.422L75.5487 116.344L75.5868 116.266L75.6254 116.188L75.6557 116.103L75.6864 116.025L75.7094 115.94L75.7253 115.861L75.7404 115.776L75.7483 115.691L75.7556 115.606V115.528H75.7561ZM68.2251 117.509V117.388L68.2092 117.267L68.1789 117.147L68.1406 117.026L68.0793 116.905L68.0099 116.784L67.9637 116.728L67.9178 116.671L67.8638 116.621L67.8025 116.565L67.7409 116.515L67.6718 116.466L67.6027 116.423L67.526 116.373L67.4414 116.338L67.3491 116.295L67.2492 116.26L67.1492 116.224L67.0415 116.196L66.9264 116.168L66.8036 116.146L66.6729 116.132L66.5346 116.111L66.3966 116.103L66.2429 116.097H63.4074L62.6458 119.341H65.6356L65.8198 119.333L66.0045 119.319L66.1808 119.298L66.3426 119.277L66.496 119.248L66.6499 119.213L66.7882 119.178L66.9189 119.142L67.0496 119.092L67.1644 119.05L67.2721 118.993L67.3796 118.943L67.4719 118.879L67.5643 118.823L67.6486 118.759L67.7255 118.688L67.7947 118.624L67.8562 118.553L67.9175 118.474L67.971 118.403L68.0175 118.326L68.0636 118.247L68.0944 118.17L68.1325 118.084L68.1555 118.006L68.1789 117.921L68.1943 117.843L68.2097 117.758L68.2176 117.672L68.2254 117.594V117.509H68.2251Z" fill="black" stroke="#2F2C29" stroke-miterlimit="2.613"/>
</g>
</g>
<defs>
<filter id="filter0_d_4_2466" x="0.892578" y="0.0352783" width="233.821" height="230.36" filterUnits="userSpaceOnUse" color-interpolation-filters="sRGB">
<feFlood flood-opacity="0" result="BackgroundImageFix"/>
<feColorMatrix in="SourceAlpha" type="matrix" values="0 0 0 0 0 0 0 0 0 0 0 0 0 0 0 0 0 0 127 0" result="hardAlpha"/>
<feOffset dy="1"/>
<feGaussianBlur stdDeviation="25"/>
<feComposite in2="hardAlpha" operator="out"/>
<feColorMatrix type="matrix" values="0 0 0 0 0 0 0 0 0 0 0 0 0 0 0 0 0 0 0.1 0"/>
<feBlend mode="normal" in2="BackgroundImageFix" result="effect1_dropShadow_4_2466"/>
<feBlend mode="normal" in="SourceGraphic" in2="effect1_dropShadow_4_2466" result="shape"/>
</filter>
<clipPath id="clip0_4_2466">
<rect width="123" height="20" fill="white" transform="translate(56.3032 106)"/>
</clipPath>
</defs>
</svg>
