<svg width="235" height="231" viewBox="0 0 235 231" fill="none" xmlns="http://www.w3.org/2000/svg">
<g filter="url(#filter0_d_5_6436)">
<rect x="50.2498" y="49.2228" width="133.821" height="130.36" rx="5" fill="white"/>
<g clip-path="url(#clip0_5_6436)">
<path d="M175.627 121.175V123.387H175.274V121.682H175.252L174.666 123.387H174.363L173.782 121.682V123.387H173.424V121.175H173.956L174.541 122.908L175.095 121.175H175.627ZM173.196 121.175V121.494H172.512V123.387H172.159V121.494H171.475V121.175H173.196ZM164.356 117.873C164.887 116.065 164.887 114.999 164.378 114.304C163.998 113.825 163.444 113.585 162.604 113.585C160.731 113.585 159.694 114.703 158.858 117.502C158.322 119.338 158.322 120.404 158.831 121.095C159.184 121.551 159.77 121.79 160.606 121.79C162.452 121.79 163.52 120.696 164.356 117.873ZM171.676 113.825C172.409 114.787 172.566 116.009 172.132 117.502C170.917 121.631 166.331 123.998 159.537 123.998C155.484 123.998 152.726 123.171 151.506 121.574C150.773 120.616 150.648 119.367 151.077 117.873C152.292 113.745 156.878 111.378 163.672 111.378C167.699 111.378 170.488 112.228 171.676 113.825H171.676ZM146.339 111.777H153.535C153.102 112.387 145.276 123.439 145.146 123.627H134.102C134.048 123.279 132.73 112.204 132.681 111.777H139.448C139.497 112.124 140.435 120.085 140.435 120.085C140.435 120.085 146.236 111.936 146.339 111.777ZM124.015 117.873C124.546 116.065 124.573 114.999 124.041 114.304C123.684 113.825 123.103 113.585 122.294 113.585C120.417 113.585 119.353 114.703 118.544 117.502C117.985 119.338 117.985 120.404 118.517 121.095C118.87 121.551 119.456 121.79 120.265 121.79C122.142 121.79 123.206 120.696 124.015 117.873ZM131.362 113.825C132.1 114.787 132.252 116.009 131.796 117.502C130.58 121.631 125.99 123.998 119.228 123.998C115.174 123.998 112.412 123.171 111.192 121.574C110.459 120.616 110.307 119.367 110.736 117.873C111.979 113.745 116.564 111.378 123.331 111.378C127.384 111.378 130.147 112.228 131.362 113.825ZM110.182 113.242C110.459 113.613 110.611 113.984 110.535 114.52L107.724 123.65H100.273L102.91 115.131C103.008 114.759 102.883 114.44 102.682 114.201C102.325 113.745 101.565 113.454 98.9548 113.642C98.9548 113.642 95.8666 123.519 95.8128 123.65H88.3666C88.4384 123.439 91.8618 112.444 91.911 112.336C94.4989 111.857 97.9178 111.406 101.467 111.406C106.28 111.406 109.216 112.017 110.182 113.242ZM82.9944 115.746C83.1464 114.999 82.9185 114.44 82.6635 114.121C82.3865 113.745 81.7741 113.266 80.5094 113.266C78.7127 113.266 77.3674 114.172 76.9114 115.689L76.0264 119.179L82.9944 115.746ZM89.2515 115.717C89.2515 116.276 89.1264 116.756 89.0236 116.967C88.7957 117.023 75.7987 120.057 75.7987 120.057C75.7987 120.057 75.6689 120.724 76.1517 121.072C76.7864 121.551 77.4702 121.682 78.6323 121.734C81.4972 121.866 85.3764 120.109 86.4628 119.606C86.2885 120.189 85.171 122.749 85.1219 122.88C84.6391 123.068 81.953 123.97 76.6835 123.998C74.6811 124.026 71.1101 123.758 69.6397 121.814C68.9068 120.856 68.7773 119.498 69.2822 117.794C70.4755 113.721 74.9361 111.378 81.4703 111.378C85.1219 111.378 87.504 112.096 88.5946 113.505C89.0236 114.092 89.2515 114.839 89.2515 115.717ZM63.8876 106H71.2623C71.1104 106.502 66.1449 123.331 66.0644 123.627H58.6943C58.8461 123.119 63.8116 106.291 63.8876 106Z" fill="#005E9D"/>
</g>
</g>
<defs>
<filter id="filter0_d_5_6436" x="0.249756" y="0.222778" width="233.821" height="230.36" filterUnits="userSpaceOnUse" color-interpolation-filters="sRGB">
<feFlood flood-opacity="0" result="BackgroundImageFix"/>
<feColorMatrix in="SourceAlpha" type="matrix" values="0 0 0 0 0 0 0 0 0 0 0 0 0 0 0 0 0 0 127 0" result="hardAlpha"/>
<feOffset dy="1"/>
<feGaussianBlur stdDeviation="25"/>
<feComposite in2="hardAlpha" operator="out"/>
<feColorMatrix type="matrix" values="0 0 0 0 0 0 0 0 0 0 0 0 0 0 0 0 0 0 0.1 0"/>
<feBlend mode="normal" in2="BackgroundImageFix" result="effect1_dropShadow_5_6436"/>
<feBlend mode="normal" in="SourceGraphic" in2="effect1_dropShadow_5_6436" result="shape"/>
</filter>
<clipPath id="clip0_5_6436">
<rect width="117" height="18" fill="white" transform="translate(58.6606 106)"/>
</clipPath>
</defs>
</svg>
