<svg width="235" height="231" viewBox="0 0 235 231" fill="none" xmlns="http://www.w3.org/2000/svg">
<g filter="url(#filter0_d_4_2418)">
<rect x="50.2498" y="49.0353" width="133.821" height="130.36" rx="5" fill="white"/>
<g clip-path="url(#clip0_4_2418)">
<path d="M178.583 103.523C176.911 94.1164 148.056 91.1809 114.133 96.9661C99.8857 99.397 87.0215 102.982 77.0035 107.016C78.5424 107.049 79.6837 107.395 80.3771 108.072C80.9193 108.604 81.1931 109.334 81.1931 110.243V111.176H77.8667V110.352C77.8667 109.665 77.4464 109.24 76.7021 109.24C76.0766 109.24 75.6913 109.517 75.5669 110.061C75.5252 110.277 75.5298 110.498 75.5804 110.712C75.9363 112.137 80.8758 113.022 81.4131 115.652C81.4835 115.991 81.5791 116.715 81.4284 117.751C81.1202 119.873 79.2175 120.691 76.7952 120.691C73.4142 120.691 72.0407 119.123 72.0407 116.96L72.0432 115.937H75.6092L75.611 117.211C75.611 117.928 76.1428 118.323 76.8669 118.323C77.553 118.323 77.9537 118.053 78.0921 117.499C78.1564 117.245 78.1846 116.87 78.0676 116.583C77.4078 114.962 72.7955 114.204 72.2276 111.583C72.1008 110.993 72.0904 110.492 72.1957 109.857C72.2498 109.543 72.3492 109.238 72.491 108.951C61.3789 114.041 54.8785 119.642 55.7374 124.478C57.4116 133.886 86.2656 136.819 120.189 131.033C135.101 128.491 148.507 124.685 158.71 120.419C158.563 120.426 158.419 120.442 158.266 120.442C155.944 120.442 153.871 119.59 153.656 117.265C153.618 116.842 153.612 116.665 153.61 116.424L153.612 111.08C153.612 110.849 153.639 110.445 153.666 110.236C153.941 107.989 155.754 107.063 158.267 107.063C160.212 107.063 162.597 107.61 162.86 110.238C162.894 110.568 162.891 110.92 162.89 111.036V111.541H159.531V110.788C159.531 110.771 159.526 110.49 159.489 110.314C159.434 110.046 159.2 109.424 158.244 109.424C157.298 109.424 157.053 110.047 156.992 110.315C156.957 110.462 156.941 110.673 156.941 110.907V116.715C156.937 116.917 156.948 117.074 156.969 117.19C156.985 117.281 157.155 118.082 158.255 118.082C159.347 118.082 159.517 117.281 159.532 117.19C159.561 117.033 159.564 116.846 159.563 116.715V114.915H158.241V112.977H162.916V116.425C162.915 116.66 162.911 116.833 162.871 117.265C162.814 117.875 162.618 118.391 162.311 118.832C173.131 113.799 179.431 108.289 178.583 103.523ZM90.62 120.195L88.9182 108.868H88.8569L87.1116 120.195H83.5247L85.9372 107.403H91.7895L94.1872 120.195H90.62ZM107.872 120.195L107.793 109.087H107.736L105.625 120.195H102.259L100.159 109.087H100.099L100.022 120.195H96.6867L96.9758 107.403H102.341L103.903 116.905H103.98L105.546 107.403H110.909L111.197 120.195H107.872ZM123.58 117.716C123.221 120.194 120.743 120.627 118.992 120.627C116.084 120.627 114.285 119.409 114.285 116.932L114.287 115.921H117.81L117.813 117.18C117.813 117.864 118.304 118.282 119.064 118.282C119.742 118.282 120.139 118.015 120.276 117.468C120.34 117.213 120.366 116.841 120.254 116.56C119.604 114.969 115.028 114.19 114.472 111.609C114.345 111.024 114.335 110.527 114.44 109.899C114.827 107.56 117.12 107.074 118.965 107.074C120.615 107.074 121.817 107.427 122.537 108.132C123.074 108.659 123.346 109.382 123.346 110.282V111.205H120.052V110.39C120.052 109.693 119.61 109.29 118.9 109.29C118.27 109.29 117.889 109.564 117.764 110.103C117.724 110.317 117.729 110.536 117.78 110.747C118.133 112.165 123.029 113.032 123.565 115.638C123.634 115.97 123.729 116.684 123.58 117.716ZM135.782 116.554C135.787 116.794 135.763 117.273 135.75 117.396C135.549 119.504 134.01 120.575 131.188 120.575C128.354 120.575 126.814 119.504 126.615 117.396C126.592 117.117 126.581 116.836 126.582 116.556V107.4H129.953V116.845C129.949 117.056 129.96 117.212 129.981 117.32C130.023 117.531 130.236 118.212 131.188 118.212C132.136 118.212 132.349 117.53 132.394 117.323C132.413 117.211 132.424 117.047 132.424 116.844V107.4H135.782V116.554ZM150.304 120.065H145.614L142.466 109.932H142.413L142.588 120.065H139.319V107.403H144.206L147.115 117.136H147.183L147.011 107.403H150.304V120.065Z" fill="#2D4F9E"/>
</g>
</g>
<defs>
<filter id="filter0_d_4_2418" x="0.249756" y="0.0352783" width="233.821" height="230.36" filterUnits="userSpaceOnUse" color-interpolation-filters="sRGB">
<feFlood flood-opacity="0" result="BackgroundImageFix"/>
<feColorMatrix in="SourceAlpha" type="matrix" values="0 0 0 0 0 0 0 0 0 0 0 0 0 0 0 0 0 0 127 0" result="hardAlpha"/>
<feOffset dy="1"/>
<feGaussianBlur stdDeviation="25"/>
<feComposite in2="hardAlpha" operator="out"/>
<feColorMatrix type="matrix" values="0 0 0 0 0 0 0 0 0 0 0 0 0 0 0 0 0 0 0.1 0"/>
<feBlend mode="normal" in2="BackgroundImageFix" result="effect1_dropShadow_4_2418"/>
<feBlend mode="normal" in="SourceGraphic" in2="effect1_dropShadow_4_2418" result="shape"/>
</filter>
<clipPath id="clip0_4_2418">
<rect width="123" height="40" fill="white" transform="translate(55.6604 94)"/>
</clipPath>
</defs>
</svg>
