<svg width="26" height="26" viewBox="0 0 26 26" fill="none" xmlns="http://www.w3.org/2000/svg">
<path d="M20.9045 4.9054H4.23787C3.09204 4.9054 2.16496 5.8429 2.16496 6.98873L2.15454 19.4887C2.15454 20.6346 3.09204 21.5721 4.23787 21.5721H20.9045C22.0504 21.5721 22.9879 20.6346 22.9879 19.4887V6.98873C22.9879 5.8429 22.0504 4.9054 20.9045 4.9054ZM20.4879 9.33248L13.1233 13.9366C12.79 14.145 12.3525 14.145 12.0191 13.9366L4.65454 9.33248C4.55009 9.27384 4.45862 9.19463 4.38568 9.09962C4.31273 9.00461 4.25981 8.89579 4.23014 8.77974C4.20047 8.66369 4.19465 8.54283 4.21304 8.42446C4.23143 8.3061 4.27364 8.1927 4.33713 8.09113C4.40061 7.98955 4.48405 7.90191 4.58238 7.83351C4.68072 7.76512 4.79191 7.71739 4.90922 7.69321C5.02654 7.66903 5.14754 7.6689 5.26491 7.69284C5.38228 7.71678 5.49357 7.76428 5.59204 7.83248L12.5712 12.1971L19.5504 7.83248C19.6489 7.76428 19.7601 7.71678 19.8775 7.69284C19.9949 7.6689 20.1159 7.66903 20.2332 7.69321C20.3505 7.71739 20.4617 7.76512 20.56 7.83351C20.6584 7.90191 20.7418 7.98955 20.8053 8.09113C20.8688 8.1927 20.911 8.3061 20.9294 8.42446C20.9478 8.54283 20.942 8.66369 20.9123 8.77974C20.8826 8.89579 20.8297 9.00461 20.7567 9.09962C20.6838 9.19463 20.5923 9.27384 20.4879 9.33248Z" fill="white"/>
</svg>
