<svg width="23" height="27" viewBox="0 0 23 27" fill="none" xmlns="http://www.w3.org/2000/svg">
<path d="M20.2532 18.5189L13.5279 25.4358C13.2785 25.6922 12.9777 25.8966 12.6439 26.0363C12.31 26.176 11.9502 26.248 11.5865 26.248C11.2229 26.248 10.863 26.176 10.5292 26.0363C10.1953 25.8966 9.89451 25.6922 9.64519 25.4358L2.91986 18.5189H2.94519L2.93386 18.506L2.91986 18.4898C1.19365 16.5121 0.248603 14.0047 0.25319 11.4147C0.25319 5.35098 5.32719 0.435547 11.5865 0.435547C17.8459 0.435547 22.9199 5.35098 22.9199 11.4147C22.9244 14.0047 21.9794 16.5121 20.2532 18.4898L20.2392 18.506L20.2279 18.5189H20.2532ZM12.3305 8.75646L14.2412 10.6074H6.91986C6.69884 10.6074 6.48688 10.6925 6.3306 10.8439C6.17432 10.9953 6.08652 11.2006 6.08652 11.4147C6.08652 11.6288 6.17432 11.8342 6.3306 11.9856C6.48688 12.137 6.69884 12.222 6.91986 12.222H14.2412L12.3305 14.073C12.1742 14.2244 12.0864 14.4297 12.0864 14.6439C12.0864 14.858 12.1742 15.0634 12.3305 15.2148C12.4868 15.3662 12.6988 15.4513 12.9199 15.4513C13.1409 15.4513 13.3529 15.3662 13.5092 15.2148L16.8425 11.9856C16.9199 11.9107 16.9813 11.8217 17.0232 11.7237C17.0651 11.6257 17.0867 11.5207 17.0867 11.4147C17.0867 11.3087 17.0651 11.2037 17.0232 11.1057C16.9813 11.0078 16.9199 10.9188 16.8425 10.8438L13.5092 7.61463C13.4318 7.53966 13.3399 7.48018 13.2388 7.43961C13.1377 7.39903 13.0293 7.37815 12.9199 7.37815C12.8104 7.37815 12.702 7.39903 12.6009 7.43961C12.4998 7.48018 12.4079 7.53966 12.3305 7.61463C12.2531 7.6896 12.1917 7.77861 12.1499 7.87657C12.108 7.97453 12.0864 8.07952 12.0864 8.18555C12.0864 8.29158 12.108 8.39657 12.1499 8.49452C12.1917 8.59248 12.2531 8.68149 12.3305 8.75646Z" fill="#2D9CDB"/>
</svg>
