<svg width="19" height="18" viewBox="0 0 19 18" fill="none" xmlns="http://www.w3.org/2000/svg">
<path fill-rule="evenodd" clip-rule="evenodd" d="M9.36284 1.22949C13.3903 1.22949 16.6663 4.50549 16.6663 8.53299C16.6663 10.4332 15.9371 12.1662 14.7438 13.4669L17.0919 15.81C17.3116 16.0298 17.3124 16.3853 17.0926 16.605C16.9831 16.716 16.8384 16.7708 16.6944 16.7708C16.5511 16.7708 16.4071 16.716 16.2969 16.6065L13.9205 14.2367C12.6704 15.2379 11.0854 15.8372 9.36284 15.8372C5.33534 15.8372 2.05859 12.5605 2.05859 8.53299C2.05859 4.50549 5.33534 1.22949 9.36284 1.22949ZM9.36284 2.35449C5.95559 2.35449 3.18359 5.12574 3.18359 8.53299C3.18359 11.9402 5.95559 14.7122 9.36284 14.7122C12.7693 14.7122 15.5413 11.9402 15.5413 8.53299C15.5413 5.12574 12.7693 2.35449 9.36284 2.35449Z" fill="black"/>
</svg>
